<?xml version="1.0" encoding="utf-8"?>
<!-- Generator: Adobe Illustrator 26.1.0, SVG Export Plug-In . SVG Version: 6.00 Build 0)  -->
<svg version="1.1" id="Layer_1" xmlns="http://www.w3.org/2000/svg" xmlns:xlink="http://www.w3.org/1999/xlink" x="0px" y="0px"
	 viewBox="0 0 144 72" style="enable-background:new 0 0 144 72;" xml:space="preserve">
<style type="text/css">
	.st0{fill:#828A8C;}
</style>
<g>
	<g id="Group_11" transform="translate(-2869.5 -219)">
		<path id="Path_13" class="st0" d="M2975.7,250.9h11.3v11.2h-11.3V250.9z M2985.2,253.3h-6.9v6.9h2.3V258h2.3v-2.3h2.3
			C2985.2,255.7,2985.3,253.2,2985.2,253.3z"/>
		<g id="Group_5" transform="translate(3299.458 222.851)">
			<path id="Path_17" class="st0" d="M-289.8,39.1h1.9c-0.6-5.7-5-10.3-10.8-11V30C-294,30.7-290.4,34.4-289.8,39.1L-289.8,39.1z"/>
			<path id="Path_18" class="st0" d="M-293.8,39.1L-293.8,39.1l1.8,0v0c0-3.7-2.9-6.8-6.6-7.1v1.8C-296,34-293.9,36.3-293.8,39.1z"
				/>
			<circle id="Ellipse_1" class="st0" cx="-298" cy="38" r="1.4"/>
		</g>
		<path id="Path_19" class="st0" d="M2874,255.7h-1.3v-1.8h1.3v-1.6c0-0.4,0.1-0.9,0.3-1.2c0.3-0.4,0.7-0.7,1.2-0.9
			c0.4-0.1,0.9-0.2,1.3-0.2c0.3,0,0.6,0,0.9,0.1c0,0,0,0,0.1,0l0,1.7h-1.2c-0.1,0-0.3,0-0.4,0.1c-0.1,0.1-0.3,0.2-0.3,0.4
			c0,0.1,0,0.2,0,0.3v1.4h1.9l-0.1,1.8h-1.9v5h-1.9V255.7z"/>
		<path id="Path_20" class="st0" d="M2898.3,258.3c-1-0.1-1.8-0.7-2.2-1.6h1l0,0c-1-0.3-1.8-1.2-1.8-2.3l1,0.3l0-0.1
			c-0.5-0.3-0.8-0.8-0.9-1.4c-0.1-0.6,0-1.2,0.3-1.7c1.2,1.4,2.9,2.3,4.8,2.4c0-0.3,0-0.5,0-0.8c0.2-1.3,1.3-2.2,2.6-2
			c0.5,0.1,0.9,0.3,1.3,0.6c0.1,0.1,0.2,0.1,0.3,0.1c0.4-0.1,0.8-0.3,1.1-0.4c0,0,0.1,0,0.2-0.1c-0.2,0.5-0.5,0.9-0.9,1.2
			c0.4,0,0.8-0.1,1.2-0.3c-0.2,0.4-0.5,0.7-0.9,1c-0.2,0.1-0.3,0.3-0.3,0.5c0,1.8-0.7,3.5-2,4.8c-1,1-2.3,1.7-3.7,1.8
			c-1.4,0.2-2.8,0-4.1-0.7c-0.1-0.1-0.3-0.2-0.4-0.3c0.6,0,1.2,0,1.8-0.2C2897.2,259,2897.8,258.7,2898.3,258.3L2898.3,258.3z"/>
		<g id="Group_6" transform="translate(-83.245)">
			<path id="Path_14" class="st0" d="M3039.1,250.9c5.1,0,5.8,0.7,5.8,5.7c0,5-0.7,5.7-5.7,5.7c-5.1,0-5.8-0.7-5.8-5.7
				C3033.4,251.6,3034.1,250.9,3039.1,250.9z M3039.1,261.4c4.6,0,5-0.4,5-4.7c0-4.5-0.5-5-5.1-5c-4.3,0-4.8,0.5-4.8,4.8
				C3034.2,261,3034.6,261.4,3039.1,261.4L3039.1,261.4z"/>
			<path id="Path_15" class="st0" d="M3041.3,258.5c-1.1,1.1-3,1.2-4,0.1c-1.1-1.1-1.1-3-0.1-4c1.1-1.1,2.9-1.1,4,0
				C3042.2,255.6,3042.3,257.5,3041.3,258.5z M3040.7,258c0.7-0.7,0.6-2.2-0.1-2.9c-0.7-0.7-2.2-0.6-2.9,0.1
				c-0.7,0.7-0.6,2.2,0.1,2.9C3038.5,258.8,3040,258.7,3040.7,258z"/>
			<circle id="Ellipse_2" class="st0" cx="3042.2" cy="253.6" r="0.7"/>
		</g>
	</g>
	<path class="st0" d="M63.7,43.1h-9.8c-1.6,0-2.9-1.3-2.9-2.9v-5.4c0-1.6,1.3-2.9,2.9-2.9h9.8c1.6,0,2.9,1.3,2.9,2.9v5.4
		C66.6,41.8,65.3,43.1,63.7,43.1z M61.6,37.4c-1.7-0.9-3-1.6-4.5-2.4c0,1.6,0,3,0,4.7C58.7,38.9,60,38.2,61.6,37.4z"/>
</g>
</svg>
