<?xml version="1.0" encoding="utf-8"?>
<!-- Generator: Adobe Illustrator 26.1.0, SVG Export Plug-In . SVG Version: 6.00 Build 0)  -->
<svg version="1.1" id="Layer_1" xmlns="http://www.w3.org/2000/svg" xmlns:xlink="http://www.w3.org/1999/xlink" x="0px" y="0px"
	 viewBox="0 0 144 72" style="enable-background:new 0 0 144 72;" xml:space="preserve">
<style type="text/css">
	.st0{fill:#F7AE02;}
</style>
<g>
	<path id="Path_18" class="st0" d="M65.9,2.3L18.4,24.8l-3.2,1.5c0,0-4.3,1.8-6.9,4.6c0,0-3,2.8-4,6.1c-0.6,2.3-0.5,4.8,0.3,7.1
		c2.6,6.1,8.8,10,15.4,9.6c3-0.2,6-1,8.7-2.4l4.3-1.9c0,0,2,0.5,1.5,2.5c-0.3,1-1.1,1.9-2,2.4l-8.1,3.1l-10,3.5
		c0,0,3.6,3.5,10.2,2.9c2.4-0.2,4.7-0.7,6.9-1.6c0,0,4.6-1.8,6.9-3.9c1.9-1.8,3.2-4.3,3.4-6.9c0.3-2.2-0.4-4.4-1.9-6.1
		c2.2-2.2,3.3-5.3,3-8.4c0,0-0.4-4.3-4.3-6.1c-2.1-0.8-4.4-0.8-6.5-0.2c0,0-5.1,2-7,3.1l-5.6,2.7c0,0-5.7,3.2-6.7,4.8v0
		c0,0.1,0,0.2,0,0.3c0,0,0,0,0,0.1c0,0.1,0,0.2,0,0.3c0,0,0,0,0,0.1c0.3,1.1,1.4,2.1,2.4,2.6c0.5,0.3,1,0.5,1.5,0.6
		c0.5,0.1,1,0.2,1.5,0.3c1.2-1.5,2.7-2.7,4.5-3.5l9.8-4.7c0,0,1.5-0.8,2.5,0.2c0,0,0.8,0.8,0.1,2.3c-0.4,0.7-1.1,1.4-1.8,1.8
		l-7.7,3.7c0,0-3.8,1.9-5.8,1.8c0,0-3.9,0.4-6.7-2.3c-1.4-1.3-2.3-3.2-2.5-5.1c0,0,0-2.5,3-5.1c0,0,1.6-1.6,6.4-3.7l10-4.8l18.3-8.7
		l7.9-3.8c0,0,4.2-1.8,6.3-3.7C65.1,8.2,66.2,5.3,65.9,2.3z"/>
	<path id="Path_19" class="st0" d="M62.3,16.2l-25,11.9c1.1,0.2,2.1,0.5,3.1,0.9c1.5,0.7,2.7,1.8,3.5,3.2l1.3-0.6l7.9-3.8
		c0,0,4.2-1.8,6.3-3.7C61.5,22.1,62.6,19.2,62.3,16.2z"/>
	<path id="Path_20" class="st0" d="M56.8,31.2l-11.4,5.4c0.9,2.7-0.4,5.4-1.5,7.9l3.7-1.7c0,0,4.2-1.8,6.3-3.7
		C56,37.1,57.2,34.2,56.8,31.2z"/>
</g>
</svg>
