<?xml version="1.0" encoding="UTF-8"?><svg id="a" xmlns="http://www.w3.org/2000/svg" xmlns:xlink="http://www.w3.org/1999/xlink" viewBox="0 0 139.3 23.65"><defs><style>.ai{fill:url(#t);}.aj{fill:url(#v);}.ak{fill:url(#e);}.al{fill:url(#g);}.am{fill:url(#o);}.an{fill:url(#r);}.ao{fill:url(#i);}.ap{fill:url(#k);}.aq{fill:url(#m);}.ar{fill:url(#x);}.as{fill:url(#ab);}.at{fill:url(#ad);}.au{fill:url(#a`);}.av{fill:#f7ae02;}</style><linearGradient id="e" x1="131.52" y1="17.06" x2="131.52" y2="15.1" gradientTransform="translate(-280.23 133.28) scale(2.26 -8.07)" gradientUnits="userSpaceOnUse"><stop offset="0" stop-color="#f1f2f2"/><stop offset="1" stop-color="#d1d3d4"/></linearGradient><linearGradient id="g" x1="7.08" y1="17.16" x2="7.08" y2="15.21" gradientTransform="translate(-301.12 134.52) scale(43.71 -8.09)" xlink:href="#e"/><linearGradient id="i" x1="12.39" y1="18.26" x2="12.39" y2="16.3" gradientTransform="translate(-292.23 142.96) scale(24.56 -8.07)" xlink:href="#e"/><linearGradient id="k" y1="18.2" y2="16.24" gradientTransform="translate(-280.23 142.28) scale(2.26 -8.06)" xlink:href="#e"/><linearGradient id="m" x1="131.49" y1="19.1" x2="131.49" y2="17.13" gradientTransform="translate(-280.1 148.22) scale(2.26 -7.99)" xlink:href="#e"/><linearGradient id="o" x1="26.99" y1="19.1" x2="26.99" y2="17.13" gradientTransform="translate(-285.87 148.23) scale(11.14 -7.99)" xlink:href="#e"/><linearGradient id="r" x1="5.67" y1="47.51" x2="5.67" y2="47.25" gradientTransform="translate(-257.65 2821) scale(49.87 -59.47)" xlink:href="#e"/><linearGradient id="t" x1="23.32" y1="47.51" x2="23.32" y2="47.25" gradientTransform="translate(-225.89 2820.95) scale(11.3 -59.47)" xlink:href="#e"/><linearGradient id="v" x1="7.82" y1="47.51" x2="7.82" y2="47.25" gradientTransform="translate(-199.38 2820.95) scale(31.59 -59.47)" xlink:href="#e"/><linearGradient id="x" x1="6.76" y1="47.65" x2="6.76" y2="47.4" gradientTransform="translate(-162.89 2925.39) scale(33.22 -61.48)" xlink:href="#e"/><linearGradient id="a`" x1="4.64" y1="47.51" x2="4.64" y2="47.25" gradientTransform="translate(-119.5 2821.26) scale(42.66 -59.47)" xlink:href="#e"/><linearGradient id="ab" x1="4.89" y1="47.52" x2="4.89" y2="47.27" gradientTransform="translate(-77.14 2832.9) scale(35.15 -59.7)" xlink:href="#e"/><linearGradient id="ad" x1="4.72" y1="47.51" x2="4.72" y2="47.25" gradientTransform="translate(-40.17 2820.95) scale(31.59 -59.47)" xlink:href="#e"/></defs><g id="b" transform="translate(0 0)"><g id="c" transform="translate(0 0.928)"><g id="d"><path id="f" class="ak" d="M17.45,.36h-.87V3.46h.87V.36Z"/><path id="h" class="al" d="M.13,.64c1,1.8,2.46,2.8,4.38,2.81,3.93,.04,7.85,.01,11.78,.01h.52V.36H0c.05,.11,.08,.2,.13,.28Z"/><path id="j" class="ao" d="M7.5,4.36c1,1.77,2.44,2.75,4.35,2.78,1.65,.03,3.31,.02,4.96,.02v-3.1H7.37c.05,.12,.09,.22,.14,.3Z"/><path id="l" class="ap" d="M17.45,4.06h-.87v3.1h.87v-3.1Z"/><path id="n" class="aq" d="M17.5,7.73h-.87v3.07h.87v-3.07Z"/><path id="p" class="am" d="M12.72,8.04c.96,1.7,2.34,2.67,4.14,2.77v-3.07h-4.28c.05,.12,.09,.22,.14,.3Z"/></g></g><g id="q" transform="translate(40.164)"><path id="s" class="an" d="M31.2,23.23h-3.96s-1.37-8.22-1.58-9.56c-.33-2-.45-3.16-.63-4.65-.18,1.49-.33,2.65-.6,4.65-.18,1.34-1.67,9.56-1.67,9.56h-4.05L15.45,.36h4.17c.15,1.13,.8,7.24,.98,8.79,.09,.8,.33,3.69,.51,5.66,.27-1.97,.65-4.85,.74-5.63,.21-1.58,1.16-7.68,1.31-8.82h3.9c.21,1.34,1.1,7.3,1.28,8.82,.15,1.19,.48,3.66,.71,5.63,.24-1.97,.48-4.41,.6-5.63,.15-1.55,.89-7.53,1.07-8.82h3.9l-3.43,22.87Z"/><path id="u" class="ai" d="M35.61,23.23V.36h4.35V23.23h-4.35Z"/><path id="w" class="aj" d="M50.08,23.23s-2.2-6.28-3.72-10.57c-.39-1.01-.71-2.04-.95-3.1,.12,1.61,.18,2.95,.18,4.5v9.17h-3.96V.36h3.81s2.17,6.4,3.66,10.3c.37,.96,.66,1.94,.86,2.95-.12-1.49-.15-3.01-.15-4.79V.36h3.96V23.23h-3.69Z"/><path id="y" class="ar" d="M66.35,23.23l-.98-1.76c-.74,1.25-1.49,2.17-3.57,2.17-4.44,0-6.46-2.41-6.46-11.11,0-10.01,1.82-12.54,6.73-12.54,4.44,0,5.69,2.56,5.69,6.94,0,.39-.03,1.1-.06,1.4l-4.08,.12c.05-.47,.07-.95,.06-1.43,0-2.62-.36-4.17-1.67-4.17-1.94,0-2.17,1.58-2.17,9.56,0,7.33,.48,8.25,2.17,8.25,1.91,0,2.35-1.49,2.35-4.62,0-.42,0-.71-.03-1.49h-2.26v-3.31h6.05v11.97h-1.76Z"/><path id="aa" class="au" d="M82.52,23.23V12.84c0-3.45,.06-4.2,.09-6.37-.24,2.17-.3,3.78-.71,6.37-.57,3.48-1.76,10.39-1.76,10.39h-3.66s-1.19-6.91-1.76-10.39c-.37-2.11-.63-4.24-.77-6.37,.09,2.26,.09,2.92,.09,6.37v10.39h-3.96V.36h5.57c.74,4.23,1.43,8.82,2,11.85,.24,1.37,.33,1.97,.62,3.81,.27-1.82,.42-2.59,.63-3.78,.57-3.04,1.31-7.71,2.08-11.88h5.51V23.23h-3.96Z"/><path id="ac" class="as" d="M96.84,23.23l-.77-4.2h-3.31l-.71,4.2h-4.14L92.29,.27h4.41l4.74,22.96h-4.59Zm-2.12-13.28c-.18-1.4-.3-2.74-.36-3.51-.06,.77-.15,2.12-.33,3.48-.36,2.83-.74,5.96-.74,5.96h2.2s-.42-3.13-.77-5.93h0Z"/><path id="ae" class="at" d="M111.32,23.23s-2.2-6.28-3.72-10.57c-.39-1.01-.71-2.04-.95-3.1,.12,1.61,.18,2.95,.18,4.5v9.17h-3.96V.36h3.81s2.17,6.4,3.66,10.3c.37,.96,.66,1.94,.86,2.95-.12-1.49-.15-3.01-.15-4.79V.36h3.96V23.23h-3.69Z"/></g></g><g id="af" transform="translate(303.648 0.738)"><path id="ag" class="av" d="M124.01,6.68v-1.16c0-1.44-.56-2.16-1.67-2.16-1.22,0-1.83,.72-1.83,2.16v5.29c.25-.25,.49-.47,.71-.66,.21-.18,.44-.34,.69-.47,.25-.13,.51-.22,.79-.28,.34-.07,.68-.1,1.03-.09,.55,0,1.09,.08,1.61,.25,.5,.16,.95,.44,1.32,.81,.4,.41,.71,.9,.9,1.44,.24,.68,.35,1.41,.33,2.13v2.69c0,2.4-.43,4.15-1.29,5.25s-2.28,1.64-4.26,1.64-3.4-.5-4.26-1.49-1.29-2.56-1.29-4.71V6.49c0-2.15,.43-3.72,1.29-4.71,.86-.99,2.28-1.49,4.26-1.49,.72-.03,1.43,.09,2.1,.35,1.21,.47,2.17,1.44,2.62,2.66,.24,.64,.37,1.32,.36,2v1.38h-3.41Zm-3.5,11.62c0,1.44,.61,2.16,1.83,2.16s1.83-.72,1.83-2.16v-3.76c.05-.58-.12-1.16-.46-1.63-.29-.35-.73-.55-1.18-.53-.4,.01-.78,.14-1.1,.38-.38,.25-.68,.47-.91,.66v4.89Z"/><path id="ah" class="av" d="M131.95,16.76v1.53c-.03,.58,.11,1.16,.43,1.66,.32,.41,.82,.64,1.34,.6,.53,.02,1.03-.21,1.36-.63,.34-.42,.5-1.1,.5-2.04v-1.72c0-1.23-.26-2.07-.77-2.52-.52-.45-1.37-.67-2.57-.67v-3.07c.49,0,.99-.04,1.47-.16,.38-.09,.72-.28,.99-.55,.27-.3,.46-.67,.55-1.06,.13-.55,.18-1.11,.17-1.68,.05-.78-.07-1.57-.35-2.3-.23-.47-.71-.75-1.23-.7-.48-.03-.95,.15-1.29,.49-.32,.32-.47,.93-.47,1.83v.94h-3.53v-1.06c0-.72,.11-1.44,.35-2.12,.22-.62,.58-1.19,1.04-1.66,.47-.48,1.04-.85,1.67-1.1,.73-.27,1.5-.41,2.27-.39,.76-.02,1.52,.15,2.21,.49,.62,.31,1.16,.75,1.59,1.28,.44,.55,.76,1.17,.96,1.85,.21,.71,.32,1.44,.32,2.18,.04,1.08-.12,2.16-.47,3.18-.4,.89-1.1,1.61-1.99,2.02,.51,.25,.98,.57,1.4,.94,.36,.33,.66,.72,.87,1.16,.22,.48,.36,.98,.43,1.5,.08,.67,.12,1.33,.11,2,0,2.28-.46,3.95-1.37,5.03s-2.35,1.61-4.31,1.61c-1.62,0-2.89-.43-3.82-1.3s-1.39-2.27-1.39-4.21v-1.35h3.54Z"/></g></svg>